<?xml version="1.0" standalone="no"?><!DOCTYPE svg PUBLIC "-//W3C//DTD SVG 1.1//EN" "http://www.w3.org/Graphics/SVG/1.1/DTD/svg11.dtd"><svg t="1544075337082" class="icon" style="" viewBox="0 0 1024 1024" version="1.1" xmlns="http://www.w3.org/2000/svg" p-id="9485" xmlns:xlink="http://www.w3.org/1999/xlink" width="200" height="200"><defs><style type="text/css"></style></defs><path d="M312.858947 840.892632v23.04h-15.494736v-67.368421h26.947368a27.890526 27.890526 0 0 1 18.863158 6.063157 20.075789 20.075789 0 0 1 7.141052 16.303158 19.806316 19.806316 0 0 1-6.871578 16.437895 27.890526 27.890526 0 0 1-18.863158 6.063158z m0-11.991579h11.722106a9.970526 9.970526 0 0 0 7.68-2.829474 9.701053 9.701053 0 0 0 2.694736-7.141053 10.374737 10.374737 0 0 0-2.694736-7.275789 9.970526 9.970526 0 0 0-7.68-2.829474h-11.722106zM386.694737 850.863158h-21.153684l-3.772632 13.473684h-15.629474l21.557895-67.368421h16.707369l21.692631 67.368421H390.736842z m-17.785263-11.991579h14.282105l-7.006316-23.983158zM426.442105 838.197895v25.734737h-15.629473v-67.368421h25.869473a28.698947 28.698947 0 0 1 18.458948 5.389473 17.515789 17.515789 0 0 1 6.871579 14.686316 13.473684 13.473684 0 0 1-2.829474 8.892632 18.458947 18.458947 0 0 1-8.084211 6.197894 14.416842 14.416842 0 0 1 8.892632 5.793685 18.189474 18.189474 0 0 1 2.694737 10.105263v4.311579a24.926316 24.926316 0 0 0 0.808421 5.928421 7.68 7.68 0 0 0 2.694737 4.850526v0.943158h-16.033685a8.353684 8.353684 0 0 1-2.425263-5.12 40.421053 40.421053 0 0 1 0-6.736842v-4.042105a9.970526 9.970526 0 0 0-3.098947-7.006316 9.701053 9.701053 0 0 0-7.410526-2.56z m0-11.991579h10.374737a10.24 10.24 0 0 0 7.141053-2.15579 7.949474 7.949474 0 0 0 2.425263-6.197894 8.892632 8.892632 0 0 0-2.56-6.602106 9.701053 9.701053 0 0 0-7.141053-2.425263h-10.24zM508.766316 850.863158h-21.153684l-3.772632 13.473684h-15.629474l21.692632-67.368421h16.707368l21.692632 67.368421H512z m-17.650527-11.991579h13.473685L498.526316 814.888421zM533.018947 863.932632v-67.368421h24.252632a27.621053 27.621053 0 0 1 19.806316 7.68 26.947368 26.947368 0 0 1 7.949473 19.806315v11.991579a26.947368 26.947368 0 0 1-7.949473 19.806316 27.755789 27.755789 0 0 1-19.806316 7.814737zM548.648421 808.421053v43.115789h7.545263a11.856842 11.856842 0 0 0 9.701053-4.311579 17.515789 17.515789 0 0 0 3.503158-11.317895v-12.126315a17.381053 17.381053 0 0 0-3.503158-11.183158 11.722105 11.722105 0 0 0-9.701053-4.176842zM611.166316 863.932632h-15.494737v-67.368421h15.494737zM658.324211 846.147368a6.871579 6.871579 0 0 0-2.290527-5.52421 30.585263 30.585263 0 0 0-8.488421-4.176842 63.056842 63.056842 0 0 1-18.728421-8.488421 15.494737 15.494737 0 0 1-6.197895-13.473684 16.168421 16.168421 0 0 1 7.27579-13.473685 31.932632 31.932632 0 0 1 18.593684-5.12 28.16 28.16 0 0 1 18.189474 5.658948 17.381053 17.381053 0 0 1 6.871579 14.821052h-15.090527a8.623158 8.623158 0 0 0-2.829473-6.602105 10.644211 10.644211 0 0 0-7.410527-2.425263 12.126316 12.126316 0 0 0-7.410526 2.021053 6.467368 6.467368 0 0 0-2.694737 5.12 5.524211 5.524211 0 0 0 2.694737 4.715789 55.781053 55.781053 0 0 0 10.105263 4.446316 48.909474 48.909474 0 0 1 17.246316 8.353684 17.111579 17.111579 0 0 1 5.793684 13.473684 16.168421 16.168421 0 0 1-6.871579 13.473684 31.393684 31.393684 0 0 1-18.32421 4.985264 34.223158 34.223158 0 0 1-19.671579-5.793685 18.054737 18.054737 0 0 1-8.218948-16.437894h15.090527a9.701053 9.701053 0 0 0 3.233684 8.218947 15.090526 15.090526 0 0 0 9.431579 2.56 11.183158 11.183158 0 0 0 7.275789-2.021053 6.332632 6.332632 0 0 0 2.425264-4.311579zM724.210526 835.368421h-26.947368v16.707368h30.989474v11.991579h-45.945264v-67.368421h46.753685V808.421053H697.936842v14.821052h26.947369zM369.987368 977.111579h-15.494736v-67.368421h15.494736zM417.684211 959.326316a6.871579 6.871579 0 0 0-2.290527-5.524211 26.947368 26.947368 0 0 0-8.488421-4.042105 69.389474 69.389474 0 0 1-18.863158-8.623158 15.764211 15.764211 0 0 1-6.063158-13.473684 16.168421 16.168421 0 0 1 7.27579-13.473684 31.932632 31.932632 0 0 1 18.593684-5.12 28.16 28.16 0 0 1 18.189474 5.658947 17.381053 17.381053 0 0 1 6.871579 14.821053H417.684211a8.084211 8.084211 0 0 0-2.829474-6.467369 10.105263 10.105263 0 0 0-7.410526-2.56 11.856842 11.856842 0 0 0-7.410527 2.021053 6.467368 6.467368 0 0 0-2.694737 5.12 5.524211 5.524211 0 0 0 2.694737 4.715789 48.101053 48.101053 0 0 0 10.105263 4.446316 48.909474 48.909474 0 0 1 17.246316 8.353684 17.650526 17.650526 0 0 1 5.793684 13.473685 16.168421 16.168421 0 0 1-6.871579 13.473684 31.393684 31.393684 0 0 1-18.32421 4.985263 33.28 33.28 0 0 1-19.671579-5.793684 18.054737 18.054737 0 0 1-8.218947-16.437895h15.090526a9.701053 9.701053 0 0 0 3.233684 8.218947 15.090526 15.090526 0 0 0 9.431579 2.56 11.183158 11.183158 0 0 0 7.27579-2.021052 6.332632 6.332632 0 0 0 2.56-4.311579zM456.757895 965.12H485.052632v11.991579h-44.463158v-67.368421h16.168421zM528.707368 964.042105h-21.153684l-3.772631 13.473684h-15.629474l21.692632-67.368421h16.707368l21.692632 67.368421h-15.764211z m-17.650526-11.991579h13.473684l-7.006315-23.983158zM608.875789 977.111579H592.842105l-24.522105-42.846316v42.711579H552.421053v-67.368421h16.168421l24.252631 43.11579v-42.711579h15.494737zM619.789474 977.111579v-67.368421h24.252631a26.947368 26.947368 0 0 1 19.806316 7.68 26.004211 26.004211 0 0 1 7.949474 19.806316v11.991579a26.947368 26.947368 0 0 1-8.353684 20.88421 26.947368 26.947368 0 0 1-19.806316 7.68z m15.629473-55.107368v43.115789h7.545264a11.856842 11.856842 0 0 0 9.701052-4.311579 16.707368 16.707368 0 0 0 3.503158-11.317895v-12.126315a16.572632 16.572632 0 0 0-3.503158-11.183158 11.722105 11.722105 0 0 0-9.701052-4.176842z" fill="#3F4A5A" p-id="9486"></path><path d="M404.210526 229.052632a113.583158 113.583158 0 0 1 80.842106 26.947368c-13.473684-53.894737-49.852632-80.842105-94.31579-80.842105 0-13.473684 26.947368-26.947368 53.894737-26.947369-13.473684-13.473684-40.421053-13.473684-53.894737-13.473684-26.947368 0-53.894737 13.473684-53.894737 26.947369 0-13.473684-26.947368-26.947368-53.894737-26.947369-13.473684 0-40.421053 0-53.894736 13.473684 26.947368 0 53.894737 13.473684 53.894736 26.947369-44.463158 0-80.842105 26.947368-94.315789 80.842105a113.583158 113.583158 0 0 1 80.842105-26.947368c-40.421053 26.947368-40.421053 67.368421-40.421052 121.263157 13.473684-26.947368 53.894737-83.267368 94.315789-94.315789h26.947368c40.421053 11.048421 80.842105 67.368421 94.31579 94.315789 0-53.894737 0-94.315789-40.421053-121.263157z" fill="#81CF9B" p-id="9487"></path><path d="M727.578947 134.736842c26.947368 0 84.48 7.949474 107.789474 26.947369-17.515789-52.547368-55.242105-80.842105-107.789474-80.842106 0-13.473684 13.473684-26.947368 53.894737-26.947368-13.473684-13.473684-40.421053-13.473684-53.894737-13.473684a102.938947 102.938947 0 0 0-67.368421 26.947368 102.938947 102.938947 0 0 0-67.368421-26.947368c-13.473684 0-40.421053 0-53.894737 13.473684 40.421053 0 53.894737 13.473684 53.894737 26.947368-52.547368 0-90.273684 28.294737-107.789473 80.842106 23.309474-18.997895 80.842105-26.947368 107.789473-26.947369-52.547368 35.031579-53.894737 94.315789-53.894737 148.210526 16.033684-32.067368 53.894737-94.315789 107.789474-107.789473h26.947369c53.894737 13.473684 91.755789 75.722105 107.789473 107.789473 0-53.894737-1.347368-113.178947-53.894737-148.210526z" fill="#81CF9B" p-id="9488"></path><path d="M256 552.421053a256 134.736842 0 1 0 512 0 256 134.736842 0 1 0-512 0Z" fill="#FAD97F" p-id="9489"></path><path d="M835.368421 525.473684v161.684211H188.631579V525.473684a64.404211 64.404211 0 0 1 40.421053 13.473684 67.368421 67.368421 0 0 0 80.842105 0 67.368421 67.368421 0 0 1 80.842105 0 67.368421 67.368421 0 0 0 80.842105 0 67.368421 67.368421 0 0 1 80.842106 0 67.368421 67.368421 0 0 0 80.842105 0 67.368421 67.368421 0 0 1 80.842105 0 67.368421 67.368421 0 0 0 80.842105 0 64.404211 64.404211 0 0 1 40.421053-13.473684z" fill="#6BC7D9" p-id="9490"></path><path d="M835.368421 592.842105v94.31579H188.631579v-94.31579a64.404211 64.404211 0 0 1 40.421053 13.473684 67.368421 67.368421 0 0 0 80.842105 0 67.368421 67.368421 0 0 1 80.842105 0 67.368421 67.368421 0 0 0 80.842105 0 67.368421 67.368421 0 0 1 80.842106 0 67.368421 67.368421 0 0 0 80.842105 0 67.368421 67.368421 0 0 1 80.842105 0 67.368421 67.368421 0 0 0 80.842105 0 64.404211 64.404211 0 0 1 40.421053-13.473684z" fill="#9DE8F7" p-id="9491"></path></svg>